<svg width="56" height="56" viewBox="0 0 56 56" fill="none" xmlns="http://www.w3.org/2000/svg">
<rect width="56" height="56" rx="8" fill="#1A91FF" fill-opacity="0.1"/>
<g clip-path="url(#clip0_1_428)">
<path d="M28 40C30.3734 40 32.6935 39.2962 34.6668 37.9776C36.6402 36.6591 38.1783 34.7849 39.0866 32.5922C39.9948 30.3995 40.2324 27.9867 39.7694 25.6589C39.3064 23.3312 38.1635 21.193 36.4853 19.5147C34.8071 17.8365 32.6689 16.6936 30.3411 16.2306C28.0133 15.7676 25.6005 16.0052 23.4078 16.9135C21.2151 17.8217 19.3409 19.3598 18.0224 21.3332C16.7038 23.3066 16 25.6266 16 28C16.0034 31.1815 17.2688 34.2318 19.5185 36.4815C21.7682 38.7312 24.8185 39.9966 28 40ZM28 21C28.2967 21 28.5867 21.088 28.8334 21.2528C29.08 21.4176 29.2723 21.6519 29.3858 21.926C29.4994 22.2001 29.5291 22.5017 29.4712 22.7926C29.4133 23.0836 29.2704 23.3509 29.0607 23.5607C28.8509 23.7704 28.5836 23.9133 28.2926 23.9712C28.0017 24.0291 27.7001 23.9994 27.426 23.8858C27.1519 23.7723 26.9176 23.58 26.7528 23.3334C26.588 23.0867 26.5 22.7967 26.5 22.5C26.5 22.1022 26.658 21.7206 26.9393 21.4393C27.2206 21.158 27.6022 21 28 21ZM27 26H28C28.5304 26 29.0391 26.2107 29.4142 26.5858C29.7893 26.9609 30 27.4696 30 28V34C30 34.2652 29.8946 34.5196 29.7071 34.7071C29.5196 34.8946 29.2652 35 29 35C28.7348 35 28.4804 34.8946 28.2929 34.7071C28.1054 34.5196 28 34.2652 28 34V28H27C26.7348 28 26.4804 27.8946 26.2929 27.7071C26.1054 27.5196 26 27.2652 26 27C26 26.7348 26.1054 26.4804 26.2929 26.2929C26.4804 26.1054 26.7348 26 27 26Z" fill="#374957"/>
</g>
<defs>
<clipPath id="clip0_1_428">
<rect width="24" height="24" fill="white" transform="translate(16 16)"/>
</clipPath>
</defs>
</svg>
