<svg width="56" height="56" viewBox="0 0 56 56" fill="none" xmlns="http://www.w3.org/2000/svg">
<rect width="56" height="56" rx="8" fill="#1A91FF" fill-opacity="0.1"/>
<g clip-path="url(#clip0_1_431)">
<path d="M36.7998 20.2928C36.609 20.1228 36.3604 20.0322 36.105 20.0397C35.8495 20.0472 35.6067 20.1523 35.4262 20.3332C35.2458 20.5142 35.1415 20.7573 35.1347 21.0128C35.1279 21.2682 35.2192 21.5166 35.3898 21.7068C37.056 23.3773 37.9917 25.6404 37.9917 27.9998C37.9917 30.3592 37.056 32.6223 35.3898 34.2928C35.2882 34.3833 35.2062 34.4936 35.1488 34.6169C35.0913 34.7402 35.0596 34.874 35.0556 35.0099C35.0516 35.1459 35.0754 35.2813 35.1255 35.4077C35.1756 35.5342 35.251 35.6491 35.3471 35.7454C35.4431 35.8417 35.5578 35.9175 35.6841 35.9679C35.8105 36.0184 35.9457 36.0426 36.0817 36.039C36.2177 36.0353 36.3515 36.004 36.475 35.9469C36.5984 35.8898 36.709 35.8081 36.7998 35.7068C38.8409 33.6613 39.9873 30.8896 39.9873 27.9998C39.9873 25.1101 38.8409 22.3384 36.7998 20.2928Z" fill="#374957"/>
<path d="M34.0931 23.2938C34.0008 23.1983 33.8905 23.1221 33.7685 23.0697C33.6465 23.0173 33.5153 22.9897 33.3825 22.9886C33.2497 22.9874 33.118 23.0127 32.9951 23.063C32.8722 23.1133 32.7606 23.1875 32.6667 23.2814C32.5728 23.3753 32.4985 23.487 32.4482 23.6099C32.398 23.7328 32.3727 23.8644 32.3738 23.9972C32.375 24.13 32.4026 24.2612 32.455 24.3832C32.5074 24.5052 32.5836 24.6156 32.6791 24.7078C33.5507 25.5821 34.0402 26.7663 34.0402 28.0008C34.0402 29.2354 33.5507 30.4195 32.6791 31.2938C32.5836 31.386 32.5074 31.4964 32.455 31.6184C32.4026 31.7404 32.375 31.8716 32.3738 32.0044C32.3727 32.1372 32.398 32.2689 32.4482 32.3918C32.4985 32.5146 32.5728 32.6263 32.6667 32.7202C32.7606 32.8141 32.8722 32.8883 32.9951 32.9386C33.118 32.9889 33.2497 33.0142 33.3825 33.0131C33.5153 33.0119 33.6465 32.9843 33.7685 32.9319C33.8905 32.8795 34.0008 32.8033 34.0931 32.7078C35.3394 31.4584 36.0394 29.7656 36.0394 28.0008C36.0394 26.236 35.3394 24.5433 34.0931 23.2938Z" fill="#374957"/>
<path d="M29.819 16.2062C26.7805 16.7765 24.0773 18.4924 22.268 20.9992H21C19.6744 21.0008 18.4036 21.5281 17.4662 22.4654C16.5289 23.4028 16.0016 24.6736 16 25.9992V29.9992C16.0016 31.3248 16.5289 32.5957 17.4662 33.533C18.4036 34.4703 19.6744 34.9976 21 34.9992H22.269C24.0778 37.5061 26.7807 39.222 29.819 39.7922C29.9632 39.8188 30.1115 39.8133 30.2533 39.7761C30.3951 39.739 30.5271 39.6711 30.6397 39.5773C30.7524 39.4835 30.8431 39.3661 30.9054 39.2334C30.9676 39.1006 30.9999 38.9558 31 38.8092V17.1892C30.9999 17.0426 30.9676 16.8978 30.9054 16.7651C30.8431 16.6323 30.7524 16.5149 30.6397 16.4211C30.5271 16.3273 30.3951 16.2594 30.2533 16.2223C30.1115 16.1852 29.9632 16.1797 29.819 16.2062Z" fill="#374957"/>
</g>
<defs>
<clipPath id="clip0_1_431">
<rect width="24" height="24" fill="white" transform="translate(16 16)"/>
</clipPath>
</defs>
</svg>
